<mxfile host="Electron" agent="Mozilla/5.0 (Windows NT 10.0; Win64; x64) AppleWebKit/537.36 (KHTML, like Gecko) draw.io/24.7.5 Chrome/126.0.6478.183 Electron/31.3.0 Safari/537.36" version="24.7.5" pages="3">
  <diagram id="KHo_5J6GZrtTXdPAAQgd" name="Container States">
    <mxGraphModel dx="1110" dy="480" grid="1" gridSize="10" guides="1" tooltips="1" connect="1" arrows="1" fold="1" page="1" pageScale="1" pageWidth="850" pageHeight="1100" math="0" shadow="0">
      <root>
        <mxCell id="0" />
        <mxCell id="1" parent="0" />
        <mxCell id="hdFqUQYygrPtSAIwE9g0-1" value="&lt;font style=&quot;font-size: 20px;&quot;&gt;Waiting&lt;/font&gt;" style="rounded=0;whiteSpace=wrap;html=1;fillColor=#dae8fc;strokeColor=#6c8ebf;" parent="1" vertex="1">
          <mxGeometry x="40" y="180" width="120" height="60" as="geometry" />
        </mxCell>
        <mxCell id="hdFqUQYygrPtSAIwE9g0-2" value="&lt;font style=&quot;font-size: 18px;&quot;&gt;The container is getting ready to start, e.g., downloading the image.&lt;/font&gt;" style="rounded=0;whiteSpace=wrap;html=1;" parent="1" vertex="1">
          <mxGeometry x="160" y="180" width="630" height="60" as="geometry" />
        </mxCell>
        <mxCell id="hdFqUQYygrPtSAIwE9g0-3" value="&lt;font style=&quot;font-size: 20px;&quot;&gt;Running&lt;/font&gt;" style="rounded=0;whiteSpace=wrap;html=1;fillColor=#dae8fc;strokeColor=#6c8ebf;" parent="1" vertex="1">
          <mxGeometry x="40" y="250" width="120" height="60" as="geometry" />
        </mxCell>
        <mxCell id="hdFqUQYygrPtSAIwE9g0-4" value="&lt;font style=&quot;font-size: 18px;&quot;&gt;The container is actively running without issues.&lt;/font&gt;" style="rounded=0;whiteSpace=wrap;html=1;" parent="1" vertex="1">
          <mxGeometry x="160" y="250" width="630" height="60" as="geometry" />
        </mxCell>
        <mxCell id="hdFqUQYygrPtSAIwE9g0-5" value="&lt;font style=&quot;font-size: 20px;&quot;&gt;Terminated&lt;/font&gt;" style="rounded=0;whiteSpace=wrap;html=1;fillColor=#dae8fc;strokeColor=#6c8ebf;" parent="1" vertex="1">
          <mxGeometry x="40" y="320" width="120" height="60" as="geometry" />
        </mxCell>
        <mxCell id="hdFqUQYygrPtSAIwE9g0-6" value="&lt;font style=&quot;font-size: 18px;&quot;&gt;The container has stopped, either successfully or due to an error.(can check with exit code)&lt;/font&gt;" style="rounded=0;whiteSpace=wrap;html=1;" parent="1" vertex="1">
          <mxGeometry x="160" y="320" width="630" height="60" as="geometry" />
        </mxCell>
        <mxCell id="hdFqUQYygrPtSAIwE9g0-7" value="&lt;font style=&quot;font-size: 22px;&quot;&gt;Container States Inside a Pod&lt;/font&gt;" style="rounded=0;whiteSpace=wrap;html=1;fillColor=#fff2cc;strokeColor=#d6b656;" parent="1" vertex="1">
          <mxGeometry x="40" y="90" width="330" height="60" as="geometry" />
        </mxCell>
      </root>
    </mxGraphModel>
  </diagram>
  <diagram id="Igz_lJ7YhvZMh7-SbayO" name="For Why">
    <mxGraphModel dx="1120" dy="542" grid="1" gridSize="10" guides="1" tooltips="1" connect="1" arrows="1" fold="1" page="1" pageScale="1" pageWidth="850" pageHeight="1100" math="0" shadow="0">
      <root>
        <mxCell id="0" />
        <mxCell id="1" parent="0" />
        <mxCell id="JQqQkKxN2JkfSV1OGTPd-1" value="&lt;font style=&quot;font-size: 20px;&quot;&gt;Abstraction Layer&lt;/font&gt;" style="rounded=0;whiteSpace=wrap;html=1;fillColor=#dae8fc;strokeColor=#6c8ebf;" parent="1" vertex="1">
          <mxGeometry x="270" y="150" width="310" height="60" as="geometry" />
        </mxCell>
        <mxCell id="JQqQkKxN2JkfSV1OGTPd-2" value="&lt;font style=&quot;font-size: 20px;&quot;&gt;Future Flexibility&lt;/font&gt;" style="rounded=0;whiteSpace=wrap;html=1;fillColor=#dae8fc;strokeColor=#6c8ebf;" parent="1" vertex="1">
          <mxGeometry x="270" y="220" width="310" height="60" as="geometry" />
        </mxCell>
        <mxCell id="JQqQkKxN2JkfSV1OGTPd-3" value="&lt;font style=&quot;font-size: 20px;&quot;&gt;Consistency Across Workloads&lt;/font&gt;" style="rounded=0;whiteSpace=wrap;html=1;fillColor=#dae8fc;strokeColor=#6c8ebf;" parent="1" vertex="1">
          <mxGeometry x="270" y="360" width="310" height="60" as="geometry" />
        </mxCell>
        <mxCell id="JQqQkKxN2JkfSV1OGTPd-4" value="&lt;font style=&quot;font-size: 20px;&quot;&gt;Networking Simplification&lt;/font&gt;" style="rounded=0;whiteSpace=wrap;html=1;fillColor=#dae8fc;strokeColor=#6c8ebf;" parent="1" vertex="1">
          <mxGeometry x="270" y="290" width="310" height="60" as="geometry" />
        </mxCell>
      </root>
    </mxGraphModel>
  </diagram>
  <diagram id="A_afQTAHSCx7IxMnfxdT" name="Multi">
    <mxGraphModel dx="1960" dy="480" grid="1" gridSize="10" guides="1" tooltips="1" connect="1" arrows="1" fold="1" page="1" pageScale="1" pageWidth="850" pageHeight="1100" math="0" shadow="0">
      <root>
        <mxCell id="0" />
        <mxCell id="1" parent="0" />
        <mxCell id="aZMtS1FuF4W05B9F2ch6-1" value="" style="rounded=0;whiteSpace=wrap;html=1;fillColor=#dae8fc;strokeColor=#6c8ebf;" parent="1" vertex="1">
          <mxGeometry x="-665" y="250" width="450" height="210" as="geometry" />
        </mxCell>
        <mxCell id="aZMtS1FuF4W05B9F2ch6-2" value="" style="rounded=0;whiteSpace=wrap;html=1;fillColor=#d5e8d4;strokeColor=#82b366;" parent="1" vertex="1">
          <mxGeometry x="-635" y="260" width="380" height="190" as="geometry" />
        </mxCell>
        <mxCell id="aZMtS1FuF4W05B9F2ch6-3" value="&lt;font style=&quot;font-size: 20px;&quot;&gt;&lt;b&gt;Multi-container Pod&lt;/b&gt;&lt;/font&gt;" style="text;whiteSpace=wrap;html=1;" parent="1" vertex="1">
          <mxGeometry x="-555" y="210" width="240" height="40" as="geometry" />
        </mxCell>
        <mxCell id="aZMtS1FuF4W05B9F2ch6-4" value="&lt;font style=&quot;font-size: 20px;&quot;&gt;&lt;b&gt;db &lt;/b&gt;Container&lt;/font&gt;" style="rounded=0;whiteSpace=wrap;html=1;" parent="1" vertex="1">
          <mxGeometry x="-625" y="320" width="155" height="70" as="geometry" />
        </mxCell>
        <mxCell id="aZMtS1FuF4W05B9F2ch6-5" value="&lt;font style=&quot;font-size: 18px;&quot;&gt;Primary Container&lt;/font&gt;" style="text;html=1;align=center;verticalAlign=middle;whiteSpace=wrap;rounded=0;" parent="1" vertex="1">
          <mxGeometry x="-850" y="345" width="210" height="30" as="geometry" />
        </mxCell>
        <mxCell id="aZMtS1FuF4W05B9F2ch6-6" value="" style="shape=curlyBracket;whiteSpace=wrap;html=1;rounded=1;flipH=1;labelPosition=right;verticalLabelPosition=middle;align=left;verticalAlign=middle;" parent="1" vertex="1">
          <mxGeometry x="-260" y="295" width="50" height="130" as="geometry" />
        </mxCell>
        <mxCell id="aZMtS1FuF4W05B9F2ch6-7" value="&lt;font style=&quot;font-size: 20px;&quot;&gt;&lt;b&gt;logger&amp;nbsp;&lt;/b&gt;Container&lt;/font&gt;" style="rounded=0;whiteSpace=wrap;html=1;" parent="1" vertex="1">
          <mxGeometry x="-430" y="280" width="170" height="70" as="geometry" />
        </mxCell>
        <mxCell id="aZMtS1FuF4W05B9F2ch6-8" value="&lt;font style=&quot;font-size: 20px;&quot;&gt;&lt;b&gt;backup&amp;nbsp;&lt;/b&gt;Container&lt;/font&gt;" style="rounded=0;whiteSpace=wrap;html=1;" parent="1" vertex="1">
          <mxGeometry x="-430" y="370" width="170" height="70" as="geometry" />
        </mxCell>
        <mxCell id="aZMtS1FuF4W05B9F2ch6-9" value="&lt;font style=&quot;font-size: 20px;&quot;&gt;SideCar / Supporting Containers&lt;/font&gt;" style="text;html=1;align=center;verticalAlign=middle;whiteSpace=wrap;rounded=0;" parent="1" vertex="1">
          <mxGeometry x="-245" y="355" width="270" height="30" as="geometry" />
        </mxCell>
        <mxCell id="aZMtS1FuF4W05B9F2ch6-10" value="" style="shape=curlyBracket;whiteSpace=wrap;html=1;rounded=1;labelPosition=left;verticalLabelPosition=middle;align=right;verticalAlign=middle;" parent="1" vertex="1">
          <mxGeometry x="-675" y="330" width="35" height="60" as="geometry" />
        </mxCell>
        <mxCell id="aZMtS1FuF4W05B9F2ch6-11" value="&lt;font style=&quot;font-size: 20px;&quot;&gt;Shared Network&lt;/font&gt;" style="rounded=0;whiteSpace=wrap;html=1;fillColor=#dae8fc;strokeColor=#6c8ebf;" parent="1" vertex="1">
          <mxGeometry x="195" y="240" width="315" height="60" as="geometry" />
        </mxCell>
        <mxCell id="aZMtS1FuF4W05B9F2ch6-12" value="&lt;font style=&quot;font-size: 20px;&quot;&gt;Shared Storage&lt;/font&gt;" style="rounded=0;whiteSpace=wrap;html=1;fillColor=#dae8fc;strokeColor=#6c8ebf;" parent="1" vertex="1">
          <mxGeometry x="195" y="310" width="315" height="60" as="geometry" />
        </mxCell>
        <mxCell id="aZMtS1FuF4W05B9F2ch6-13" value="&lt;font style=&quot;font-size: 20px;&quot;&gt;Communicate inside through LOCALHOST:&amp;lt;port&amp;gt;&lt;/font&gt;" style="rounded=0;whiteSpace=wrap;html=1;fillColor=#dae8fc;strokeColor=#6c8ebf;" parent="1" vertex="1">
          <mxGeometry x="195" y="385" width="315" height="75" as="geometry" />
        </mxCell>
        <mxCell id="aZMtS1FuF4W05B9F2ch6-14" value="&lt;font style=&quot;font-size: 24px;&quot;&gt;&lt;b&gt;10.0.0.2&lt;/b&gt;&lt;/font&gt;" style="text;html=1;align=center;verticalAlign=middle;resizable=0;points=[];autosize=1;strokeColor=none;fillColor=none;" parent="1" vertex="1">
          <mxGeometry x="-500" y="473" width="110" height="40" as="geometry" />
        </mxCell>
        <mxCell id="aZMtS1FuF4W05B9F2ch6-15" value="&lt;font style=&quot;font-size: 20px;&quot;&gt;Not a Good Practice Until Needs Specifically&lt;/font&gt;" style="rounded=0;whiteSpace=wrap;html=1;fillColor=#f8cecc;strokeColor=#b85450;" parent="1" vertex="1">
          <mxGeometry x="-815" y="120" width="430" height="60" as="geometry" />
        </mxCell>
        <mxCell id="cJ2OZIn7oVwVMlbQF7KU-1" value="&lt;font style=&quot;font-size: 20px;&quot;&gt;&lt;b&gt;supported&amp;nbsp;&lt;/b&gt;Container&lt;/font&gt;" style="rounded=0;whiteSpace=wrap;html=1;" vertex="1" parent="1">
          <mxGeometry x="-605" y="260" width="215" height="70" as="geometry" />
        </mxCell>
      </root>
    </mxGraphModel>
  </diagram>
</mxfile>
